<svg width="26" height="9" viewBox="0 0 26 9" fill="none" xmlns="http://www.w3.org/2000/svg">
<path d="M7.54688 9H6.41602L2.12109 2.42578V9H0.990234V0.46875H2.12109L6.42773 7.07227V0.46875H7.54688V9ZM14.3672 5.05664H10.6699V8.08008H14.9648V9H9.54492V0.46875H14.9062V1.39453H10.6699V4.13672H14.3672V5.05664ZM18.2051 6.31055L18.3691 7.43555L18.6094 6.42188L20.2969 0.46875H21.2461L22.8926 6.42188L23.127 7.45312L23.3086 6.30469L24.6328 0.46875H25.7637L23.6953 9H22.6699L20.9121 2.7832L20.7773 2.13281L20.6426 2.7832L18.8203 9H17.7949L15.7324 0.46875H16.8574L18.2051 6.31055Z" fill="white"/>
</svg>
