<svg width="13" height="16" viewBox="0 0 13 16" fill="none" xmlns="http://www.w3.org/2000/svg">
<path d="M0.0253906 3.51562C0.0253906 2.66276 0.295573 1.95964 0.835938 1.40625C1.38281 0.852865 2.08268 0.576172 2.93555 0.576172C3.80143 0.576172 4.5013 0.85612 5.03516 1.41602C5.57552 1.9694 5.8457 2.6888 5.8457 3.57422V4.26758C5.8457 5.12695 5.57227 5.83008 5.02539 6.37695C4.48503 6.91732 3.79492 7.1875 2.95508 7.1875C2.10872 7.1875 1.40885 6.91732 0.855469 6.37695C0.302083 5.83008 0.0253906 5.10417 0.0253906 4.19922V3.51562ZM1.37305 4.26758C1.37305 4.77539 1.51628 5.19531 1.80273 5.52734C2.08919 5.85286 2.47331 6.01562 2.95508 6.01562C3.41732 6.01562 3.78841 5.85612 4.06836 5.53711C4.35482 5.2181 4.49805 4.7819 4.49805 4.22852V3.51562C4.49805 3.00781 4.35807 2.58789 4.07812 2.25586C3.79818 1.92383 3.41732 1.75781 2.93555 1.75781C2.45378 1.75781 2.07292 1.92383 1.79297 2.25586C1.51302 2.58789 1.37305 3.02083 1.37305 3.55469V4.26758ZM6.94922 11.5137C6.94922 10.6608 7.2194 9.96094 7.75977 9.41406C8.30664 8.86068 9.00651 8.58398 9.85938 8.58398C10.7122 8.58398 11.4121 8.85742 11.959 9.4043C12.5059 9.95117 12.7793 10.6771 12.7793 11.582V12.2754C12.7793 13.1283 12.5059 13.8314 11.959 14.3848C11.4186 14.9316 10.7253 15.2051 9.87891 15.2051C9.03255 15.2051 8.33268 14.9349 7.7793 14.3945C7.22591 13.8477 6.94922 13.1217 6.94922 12.2168V11.5137ZM8.29688 12.2754C8.29688 12.7897 8.4401 13.2129 8.72656 13.5449C9.01302 13.8704 9.39714 14.0332 9.87891 14.0332C10.3477 14.0332 10.722 13.8737 11.002 13.5547C11.2819 13.2292 11.4219 12.7897 11.4219 12.2363V11.5137C11.4219 10.9993 11.2786 10.5794 10.9922 10.2539C10.7122 9.92839 10.3346 9.76562 9.85938 9.76562C9.39714 9.76562 9.01953 9.92839 8.72656 10.2539C8.4401 10.5729 8.29688 11.0059 8.29688 11.5527V12.2754ZM3.36523 13.9258L2.33984 13.2812L9.2832 2.16797L10.3086 2.8125L3.36523 13.9258Z" fill="white"/>
</svg>
